<?xml version="1.0" standalone="no"?>
<!DOCTYPE svg PUBLIC "-//W3C//DTD SVG 20010904//EN"
 "http://www.w3.org/TR/2001/REC-SVG-20010904/DTD/svg10.dtd">
<svg version="1.0" xmlns="http://www.w3.org/2000/svg"
 width="840.000000pt" height="880.000000pt" viewBox="0 0 840.000000 880.000000"
 preserveAspectRatio="xMidYMid meet">

<g transform="translate(0.000000,880.000000) scale(0.100000,-0.100000)"
fill="#000000" stroke="none">
<path d="M1705 8391 l-900 -7 -65 -23 c-257 -90 -479 -326 -510 -542 -6 -41
-15 -218 -20 -394 -12 -399 -12 -5661 0 -6105 7 -289 10 -331 28 -383 66 -184
184 -329 350 -426 93 -55 180 -82 297 -92 153 -13 5190 -22 5990 -11 l690 10
85 27 c244 77 419 249 499 490 l32 98 9 846 c12 1090 12 3987 0 5057 l-9 830
-29 92 c-93 287 -340 494 -627 524 -109 11 -4530 18 -5820 9z m5925 -345 c93
-55 167 -130 219 -223 l41 -72 0 -3347 0 -3346 -37 -72 c-50 -96 -147 -192
-240 -240 l-73 -36 -3346 0 -3346 0 -72 37 c-99 52 -191 146 -239 245 l-37 77
1 2468 c1 1357 4 2864 8 3348 l6 880 27 58 c35 73 142 183 218 223 49 25 68
29 185 34 72 4 1588 7 3370 8 l3240 2 75 -44z"/>
<path d="M4124 6531 c-41 -19 -48 -28 -67 -91 -6 -23 -12 -365 -16 -965 l-6
-930 -954 -3 -955 -2 -24 -23 c-63 -58 -71 -141 -19 -209 l33 -43 961 -3 962
-2 4 -928 c4 -960 5 -991 45 -1035 52 -58 189 -48 223 15 18 33 27 345 34
1178 4 415 8 756 9 757 1 1 429 5 951 9 1040 7 976 3 1015 67 37 59 22 144
-32 193 l-23 22 -955 7 c-525 4 -956 8 -957 9 -1 1 -6 432 -10 958 -8 933 -9
957 -28 978 -27 30 -88 60 -122 60 -15 0 -46 -9 -69 -19z"/>
</g>
</svg>
